<mxfile host="app.diagrams.net" agent="Mozilla/5.0 (Windows NT 10.0; Win64; x64) AppleWebKit/537.36 (KHTML, like Gecko) Chrome/135.0.0.0 Safari/537.36 Edg/135.0.0.0" version="26.2.12">
  <diagram name="第 1 页" id="VcLkl0DjtwfKfGCXOayo">
    <mxGraphModel dx="1123" dy="908" grid="1" gridSize="10" guides="1" tooltips="1" connect="1" arrows="1" fold="1" page="1" pageScale="1" pageWidth="827" pageHeight="1169" math="0" shadow="0">
      <root>
        <mxCell id="0" />
        <mxCell id="1" parent="0" />
        <mxCell id="5BGThOlsVbfI0CAh1rRV-1" value="知识输出层" style="whiteSpace=wrap;strokeWidth=2;" vertex="1" parent="1">
          <mxGeometry x="640" y="1645" width="769" height="232" as="geometry" />
        </mxCell>
        <mxCell id="5BGThOlsVbfI0CAh1rRV-2" value="决策响应层" style="whiteSpace=wrap;strokeWidth=2;" vertex="1" parent="1">
          <mxGeometry x="30" y="1445" width="1176" height="128" as="geometry" />
        </mxCell>
        <mxCell id="5BGThOlsVbfI0CAh1rRV-3" value="核心分析层" style="whiteSpace=wrap;strokeWidth=2;" vertex="1" parent="1">
          <mxGeometry x="155" y="629" width="999" height="765" as="geometry" />
        </mxCell>
        <mxCell id="5BGThOlsVbfI0CAh1rRV-4" value="数据融合层" style="whiteSpace=wrap;strokeWidth=2;" vertex="1" parent="1">
          <mxGeometry x="187" y="325" width="919" height="255" as="geometry" />
        </mxCell>
        <mxCell id="5BGThOlsVbfI0CAh1rRV-5" value="数据采集层" style="whiteSpace=wrap;strokeWidth=2;" vertex="1" parent="1">
          <mxGeometry x="20" y="20" width="1237" height="255" as="geometry" />
        </mxCell>
        <mxCell id="5BGThOlsVbfI0CAh1rRV-6" value="日志采集智能体 - Syslog/ELK" style="whiteSpace=wrap;strokeWidth=2;" vertex="1" parent="1">
          <mxGeometry x="55" y="45" width="260" height="78" as="geometry" />
        </mxCell>
        <mxCell id="5BGThOlsVbfI0CAh1rRV-7" value="数据融合层" style="whiteSpace=wrap;strokeWidth=2;" vertex="1" parent="1">
          <mxGeometry x="568" y="196" width="140" height="54" as="geometry" />
        </mxCell>
        <mxCell id="5BGThOlsVbfI0CAh1rRV-8" value="流量采集智能体 - NetFlow/PCAP" style="whiteSpace=wrap;strokeWidth=2;" vertex="1" parent="1">
          <mxGeometry x="365" y="45" width="260" height="78" as="geometry" />
        </mxCell>
        <mxCell id="5BGThOlsVbfI0CAh1rRV-9" value="行为采集智能体 - EDR/XDR" style="whiteSpace=wrap;strokeWidth=2;" vertex="1" parent="1">
          <mxGeometry x="675" y="57" width="252" height="54" as="geometry" />
        </mxCell>
        <mxCell id="5BGThOlsVbfI0CAh1rRV-10" value="威胁情报订阅 - STIX/TAXII" style="whiteSpace=wrap;strokeWidth=2;" vertex="1" parent="1">
          <mxGeometry x="977" y="57" width="245" height="54" as="geometry" />
        </mxCell>
        <mxCell id="5BGThOlsVbfI0CAh1rRV-11" value="时间同步引擎 - NTP/PTP" style="whiteSpace=wrap;strokeWidth=2;" vertex="1" parent="1">
          <mxGeometry x="222" y="362" width="235" height="54" as="geometry" />
        </mxCell>
        <mxCell id="5BGThOlsVbfI0CAh1rRV-12" value="本体映射引擎 - CyberSecurity Ontology" style="whiteSpace=wrap;strokeWidth=2;" vertex="1" parent="1">
          <mxGeometry x="507" y="350" width="260" height="78" as="geometry" />
        </mxCell>
        <mxCell id="5BGThOlsVbfI0CAh1rRV-13" value="流式处理引擎 - Flink/Spark" style="whiteSpace=wrap;strokeWidth=2;" vertex="1" parent="1">
          <mxGeometry x="817" y="362" width="254" height="54" as="geometry" />
        </mxCell>
        <mxCell id="5BGThOlsVbfI0CAh1rRV-14" value="标准化事件流" style="whiteSpace=wrap;strokeWidth=2;" vertex="1" parent="1">
          <mxGeometry x="486" y="500" width="156" height="54" as="geometry" />
        </mxCell>
        <mxCell id="5BGThOlsVbfI0CAh1rRV-15" value="多模态TTP提取" style="whiteSpace=wrap;strokeWidth=2;" vertex="1" parent="1">
          <mxGeometry x="416" y="654" width="168" height="54" as="geometry" />
        </mxCell>
        <mxCell id="5BGThOlsVbfI0CAh1rRV-16" value="大语言模型处理" style="whiteSpace=wrap;strokeWidth=2;" vertex="1" parent="1">
          <mxGeometry x="299" y="781" width="172" height="54" as="geometry" />
        </mxCell>
        <mxCell id="5BGThOlsVbfI0CAh1rRV-17" value="机器学习模型处理" style="whiteSpace=wrap;strokeWidth=2;" vertex="1" parent="1">
          <mxGeometry x="528" y="781" width="188" height="54" as="geometry" />
        </mxCell>
        <mxCell id="5BGThOlsVbfI0CAh1rRV-18" value="ATT&amp;CK框架映射" style="whiteSpace=wrap;strokeWidth=2;" vertex="1" parent="1">
          <mxGeometry x="410" y="885" width="181" height="54" as="geometry" />
        </mxCell>
        <mxCell id="5BGThOlsVbfI0CAh1rRV-19" value="攻击图谱构建 - Neo4j/GraphDB" style="whiteSpace=wrap;strokeWidth=2;" vertex="1" parent="1">
          <mxGeometry x="835" y="1012" width="260" height="78" as="geometry" />
        </mxCell>
        <mxCell id="5BGThOlsVbfI0CAh1rRV-20" value="行为预测引擎 - LSTM/Transformer" style="whiteSpace=wrap;strokeWidth=2;" vertex="1" parent="1">
          <mxGeometry x="508" y="1140" width="260" height="78" as="geometry" />
        </mxCell>
        <mxCell id="5BGThOlsVbfI0CAh1rRV-21" value="溯源分析引擎 - PageRank/Community Detection" style="whiteSpace=wrap;strokeWidth=2;" vertex="1" parent="1">
          <mxGeometry x="508" y="1268" width="260" height="102" as="geometry" />
        </mxCell>
        <mxCell id="5BGThOlsVbfI0CAh1rRV-22" value="自动阻断模块 - FW/WAF规则更新" style="whiteSpace=wrap;strokeWidth=2;" vertex="1" parent="1">
          <mxGeometry x="65" y="1470" width="260" height="78" as="geometry" />
        </mxCell>
        <mxCell id="5BGThOlsVbfI0CAh1rRV-23" value="预警通知模块 - SIEM集成" style="whiteSpace=wrap;strokeWidth=2;" vertex="1" parent="1">
          <mxGeometry x="375" y="1482" width="236" height="54" as="geometry" />
        </mxCell>
        <mxCell id="5BGThOlsVbfI0CAh1rRV-24" value="策略调整模块 - SOAR集成" style="whiteSpace=wrap;strokeWidth=2;" vertex="1" parent="1">
          <mxGeometry x="661" y="1482" width="241" height="54" as="geometry" />
        </mxCell>
        <mxCell id="5BGThOlsVbfI0CAh1rRV-25" value="取证存档 - 区块链存证" style="whiteSpace=wrap;strokeWidth=2;" vertex="1" parent="1">
          <mxGeometry x="952" y="1482" width="220" height="54" as="geometry" />
        </mxCell>
        <mxCell id="5BGThOlsVbfI0CAh1rRV-26" value="可视化仪表盘 - 攻击链时间轴" style="whiteSpace=wrap;strokeWidth=2;" vertex="1" parent="1">
          <mxGeometry x="675" y="1670" width="260" height="78" as="geometry" />
        </mxCell>
        <mxCell id="5BGThOlsVbfI0CAh1rRV-27" value="自动报告生成 - LLM+模板引擎" style="whiteSpace=wrap;strokeWidth=2;" vertex="1" parent="1">
          <mxGeometry x="985" y="1670" width="260" height="78" as="geometry" />
        </mxCell>
        <mxCell id="5BGThOlsVbfI0CAh1rRV-28" value="威胁情报共享 - MISP平台" style="whiteSpace=wrap;strokeWidth=2;" vertex="1" parent="1">
          <mxGeometry x="836" y="1798" width="236" height="54" as="geometry" />
        </mxCell>
        <mxCell id="5BGThOlsVbfI0CAh1rRV-29" value="知识库更新 - 增量学习" style="whiteSpace=wrap;strokeWidth=2;" vertex="1" parent="1">
          <mxGeometry x="1144" y="1798" width="220" height="54" as="geometry" />
        </mxCell>
        <mxCell id="5BGThOlsVbfI0CAh1rRV-30" value="系统日志" style="curved=1;startArrow=none;endArrow=block;exitX=0.5;exitY=1;entryX=0;entryY=0.31;rounded=0;" edge="1" parent="1" source="5BGThOlsVbfI0CAh1rRV-6" target="5BGThOlsVbfI0CAh1rRV-7">
          <mxGeometry relative="1" as="geometry">
            <Array as="points">
              <mxPoint x="185" y="159" />
            </Array>
          </mxGeometry>
        </mxCell>
        <mxCell id="5BGThOlsVbfI0CAh1rRV-31" value="网络流量" style="curved=1;startArrow=none;endArrow=block;exitX=0.5;exitY=1;entryX=0.06;entryY=-0.01;rounded=0;" edge="1" parent="1" source="5BGThOlsVbfI0CAh1rRV-8" target="5BGThOlsVbfI0CAh1rRV-7">
          <mxGeometry relative="1" as="geometry">
            <Array as="points">
              <mxPoint x="495" y="159" />
            </Array>
          </mxGeometry>
        </mxCell>
        <mxCell id="5BGThOlsVbfI0CAh1rRV-32" value="应用行为" style="curved=1;startArrow=none;endArrow=block;exitX=0.5;exitY=1;entryX=0.99;entryY=-0.01;rounded=0;" edge="1" parent="1" source="5BGThOlsVbfI0CAh1rRV-9" target="5BGThOlsVbfI0CAh1rRV-7">
          <mxGeometry relative="1" as="geometry">
            <Array as="points">
              <mxPoint x="801" y="159" />
            </Array>
          </mxGeometry>
        </mxCell>
        <mxCell id="5BGThOlsVbfI0CAh1rRV-33" value="IOC数据" style="curved=1;startArrow=none;endArrow=block;exitX=0.5;exitY=1;entryX=1;entryY=0.32;rounded=0;" edge="1" parent="1" source="5BGThOlsVbfI0CAh1rRV-10" target="5BGThOlsVbfI0CAh1rRV-7">
          <mxGeometry relative="1" as="geometry">
            <Array as="points">
              <mxPoint x="1099" y="159" />
            </Array>
          </mxGeometry>
        </mxCell>
        <mxCell id="5BGThOlsVbfI0CAh1rRV-34" value="" style="curved=1;startArrow=none;endArrow=block;exitX=0;exitY=0.72;entryX=0.5;entryY=-0.01;rounded=0;" edge="1" parent="1" source="5BGThOlsVbfI0CAh1rRV-7" target="5BGThOlsVbfI0CAh1rRV-11">
          <mxGeometry relative="1" as="geometry">
            <Array as="points">
              <mxPoint x="340" y="275" />
            </Array>
          </mxGeometry>
        </mxCell>
        <mxCell id="5BGThOlsVbfI0CAh1rRV-35" value="" style="curved=1;startArrow=none;endArrow=block;exitX=0.5;exitY=0.99;entryX=0.5;entryY=0;rounded=0;" edge="1" parent="1" source="5BGThOlsVbfI0CAh1rRV-7" target="5BGThOlsVbfI0CAh1rRV-12">
          <mxGeometry relative="1" as="geometry">
            <Array as="points">
              <mxPoint x="637" y="275" />
            </Array>
          </mxGeometry>
        </mxCell>
        <mxCell id="5BGThOlsVbfI0CAh1rRV-36" value="" style="curved=1;startArrow=none;endArrow=block;exitX=1;exitY=0.71;entryX=0.5;entryY=-0.01;rounded=0;" edge="1" parent="1" source="5BGThOlsVbfI0CAh1rRV-7" target="5BGThOlsVbfI0CAh1rRV-13">
          <mxGeometry relative="1" as="geometry">
            <Array as="points">
              <mxPoint x="944" y="275" />
            </Array>
          </mxGeometry>
        </mxCell>
        <mxCell id="5BGThOlsVbfI0CAh1rRV-37" value="" style="curved=1;startArrow=none;endArrow=block;exitX=0.5;exitY=0.99;entryX=0;entryY=0.1;rounded=0;" edge="1" parent="1" source="5BGThOlsVbfI0CAh1rRV-11" target="5BGThOlsVbfI0CAh1rRV-14">
          <mxGeometry relative="1" as="geometry">
            <Array as="points">
              <mxPoint x="340" y="464" />
            </Array>
          </mxGeometry>
        </mxCell>
        <mxCell id="5BGThOlsVbfI0CAh1rRV-38" value="" style="curved=1;startArrow=none;endArrow=block;exitX=0.5;exitY=1;entryX=0.7;entryY=0.01;rounded=0;" edge="1" parent="1" source="5BGThOlsVbfI0CAh1rRV-12" target="5BGThOlsVbfI0CAh1rRV-14">
          <mxGeometry relative="1" as="geometry">
            <Array as="points">
              <mxPoint x="637" y="464" />
            </Array>
          </mxGeometry>
        </mxCell>
        <mxCell id="5BGThOlsVbfI0CAh1rRV-39" value="" style="curved=1;startArrow=none;endArrow=block;exitX=0.39;exitY=0.99;entryX=1;entryY=0.2;rounded=0;" edge="1" parent="1" source="5BGThOlsVbfI0CAh1rRV-13" target="5BGThOlsVbfI0CAh1rRV-14">
          <mxGeometry relative="1" as="geometry">
            <Array as="points">
              <mxPoint x="867" y="464" />
            </Array>
          </mxGeometry>
        </mxCell>
        <mxCell id="5BGThOlsVbfI0CAh1rRV-40" value="" style="curved=1;startArrow=none;endArrow=block;exitX=0.29;exitY=1.01;entryX=0.5;entryY=0.01;rounded=0;" edge="1" parent="1" source="5BGThOlsVbfI0CAh1rRV-14" target="5BGThOlsVbfI0CAh1rRV-15">
          <mxGeometry relative="1" as="geometry">
            <Array as="points">
              <mxPoint x="500" y="579" />
            </Array>
          </mxGeometry>
        </mxCell>
        <mxCell id="5BGThOlsVbfI0CAh1rRV-41" value="文本数据" style="curved=1;startArrow=none;endArrow=block;exitX=0.21;exitY=1.01;entryX=0.5;entryY=0;rounded=0;" edge="1" parent="1" source="5BGThOlsVbfI0CAh1rRV-15" target="5BGThOlsVbfI0CAh1rRV-16">
          <mxGeometry relative="1" as="geometry">
            <Array as="points">
              <mxPoint x="385" y="745" />
            </Array>
          </mxGeometry>
        </mxCell>
        <mxCell id="5BGThOlsVbfI0CAh1rRV-42" value="非文本数据" style="curved=1;startArrow=none;endArrow=block;exitX=0.81;exitY=1.01;entryX=0.5;entryY=0;rounded=0;" edge="1" parent="1" source="5BGThOlsVbfI0CAh1rRV-15" target="5BGThOlsVbfI0CAh1rRV-17">
          <mxGeometry relative="1" as="geometry">
            <Array as="points">
              <mxPoint x="622" y="745" />
            </Array>
          </mxGeometry>
        </mxCell>
        <mxCell id="5BGThOlsVbfI0CAh1rRV-43" value="" style="curved=1;startArrow=none;endArrow=block;exitX=0.5;exitY=1;entryX=0.17;entryY=0;rounded=0;" edge="1" parent="1" source="5BGThOlsVbfI0CAh1rRV-16" target="5BGThOlsVbfI0CAh1rRV-18">
          <mxGeometry relative="1" as="geometry">
            <Array as="points">
              <mxPoint x="385" y="860" />
            </Array>
          </mxGeometry>
        </mxCell>
        <mxCell id="5BGThOlsVbfI0CAh1rRV-44" value="" style="curved=1;startArrow=none;endArrow=block;exitX=0.5;exitY=1;entryX=0.85;entryY=0;rounded=0;" edge="1" parent="1" source="5BGThOlsVbfI0CAh1rRV-17" target="5BGThOlsVbfI0CAh1rRV-18">
          <mxGeometry relative="1" as="geometry">
            <Array as="points">
              <mxPoint x="622" y="860" />
            </Array>
          </mxGeometry>
        </mxCell>
        <mxCell id="5BGThOlsVbfI0CAh1rRV-45" value="" style="curved=1;startArrow=none;endArrow=block;exitX=1;exitY=0.91;entryX=0.07;entryY=0;rounded=0;" edge="1" parent="1" source="5BGThOlsVbfI0CAh1rRV-14" target="5BGThOlsVbfI0CAh1rRV-19">
          <mxGeometry relative="1" as="geometry">
            <Array as="points">
              <mxPoint x="751" y="579" />
              <mxPoint x="751" y="975" />
            </Array>
          </mxGeometry>
        </mxCell>
        <mxCell id="5BGThOlsVbfI0CAh1rRV-46" value="" style="curved=1;startArrow=none;endArrow=block;exitX=0.5;exitY=1;entryX=0.18;entryY=0;rounded=0;" edge="1" parent="1" source="5BGThOlsVbfI0CAh1rRV-18" target="5BGThOlsVbfI0CAh1rRV-20">
          <mxGeometry relative="1" as="geometry">
            <Array as="points">
              <mxPoint x="500" y="1115" />
            </Array>
          </mxGeometry>
        </mxCell>
        <mxCell id="5BGThOlsVbfI0CAh1rRV-47" value="" style="curved=1;startArrow=none;endArrow=block;exitX=0.5;exitY=1;entryX=1;entryY=0.17;rounded=0;" edge="1" parent="1" source="5BGThOlsVbfI0CAh1rRV-19" target="5BGThOlsVbfI0CAh1rRV-20">
          <mxGeometry relative="1" as="geometry">
            <Array as="points">
              <mxPoint x="965" y="1115" />
            </Array>
          </mxGeometry>
        </mxCell>
        <mxCell id="5BGThOlsVbfI0CAh1rRV-48" value="" style="curved=1;startArrow=none;endArrow=block;exitX=0.5;exitY=1;entryX=0.5;entryY=0;rounded=0;" edge="1" parent="1" source="5BGThOlsVbfI0CAh1rRV-20" target="5BGThOlsVbfI0CAh1rRV-21">
          <mxGeometry relative="1" as="geometry">
            <Array as="points" />
          </mxGeometry>
        </mxCell>
        <mxCell id="5BGThOlsVbfI0CAh1rRV-49" value="" style="curved=1;startArrow=none;endArrow=block;exitX=0;exitY=0.72;entryX=0.5;entryY=0;rounded=0;" edge="1" parent="1" source="5BGThOlsVbfI0CAh1rRV-21" target="5BGThOlsVbfI0CAh1rRV-22">
          <mxGeometry relative="1" as="geometry">
            <Array as="points">
              <mxPoint x="195" y="1395" />
            </Array>
          </mxGeometry>
        </mxCell>
        <mxCell id="5BGThOlsVbfI0CAh1rRV-50" value="" style="curved=1;startArrow=none;endArrow=block;exitX=0.13;exitY=1;entryX=0.5;entryY=-0.01;rounded=0;" edge="1" parent="1" source="5BGThOlsVbfI0CAh1rRV-21" target="5BGThOlsVbfI0CAh1rRV-23">
          <mxGeometry relative="1" as="geometry">
            <Array as="points">
              <mxPoint x="493" y="1395" />
            </Array>
          </mxGeometry>
        </mxCell>
        <mxCell id="5BGThOlsVbfI0CAh1rRV-51" value="" style="curved=1;startArrow=none;endArrow=block;exitX=0.87;exitY=1;entryX=0.5;entryY=-0.01;rounded=0;" edge="1" parent="1" source="5BGThOlsVbfI0CAh1rRV-21" target="5BGThOlsVbfI0CAh1rRV-24">
          <mxGeometry relative="1" as="geometry">
            <Array as="points">
              <mxPoint x="781" y="1395" />
            </Array>
          </mxGeometry>
        </mxCell>
        <mxCell id="5BGThOlsVbfI0CAh1rRV-52" value="" style="curved=1;startArrow=none;endArrow=block;exitX=1;exitY=0.73;entryX=0.5;entryY=-0.01;rounded=0;" edge="1" parent="1" source="5BGThOlsVbfI0CAh1rRV-21" target="5BGThOlsVbfI0CAh1rRV-25">
          <mxGeometry relative="1" as="geometry">
            <Array as="points">
              <mxPoint x="1061" y="1395" />
            </Array>
          </mxGeometry>
        </mxCell>
        <mxCell id="5BGThOlsVbfI0CAh1rRV-53" value="" style="curved=1;startArrow=none;endArrow=block;exitX=0;exitY=0.9;entryX=0.35;entryY=0;rounded=0;" edge="1" parent="1" source="5BGThOlsVbfI0CAh1rRV-25" target="5BGThOlsVbfI0CAh1rRV-26">
          <mxGeometry relative="1" as="geometry">
            <Array as="points">
              <mxPoint x="742" y="1573" />
              <mxPoint x="742" y="1645" />
            </Array>
          </mxGeometry>
        </mxCell>
        <mxCell id="5BGThOlsVbfI0CAh1rRV-54" value="" style="curved=1;startArrow=none;endArrow=block;exitX=0.6;exitY=0.99;entryX=0.5;entryY=0;rounded=0;" edge="1" parent="1" source="5BGThOlsVbfI0CAh1rRV-25" target="5BGThOlsVbfI0CAh1rRV-27">
          <mxGeometry relative="1" as="geometry">
            <Array as="points">
              <mxPoint x="1115" y="1573" />
            </Array>
          </mxGeometry>
        </mxCell>
        <mxCell id="5BGThOlsVbfI0CAh1rRV-55" value="" style="curved=1;startArrow=none;endArrow=block;exitX=0.12;exitY=1;entryX=0.5;entryY=0.01;rounded=0;" edge="1" parent="1" source="5BGThOlsVbfI0CAh1rRV-27" target="5BGThOlsVbfI0CAh1rRV-28">
          <mxGeometry relative="1" as="geometry">
            <Array as="points">
              <mxPoint x="954" y="1773" />
            </Array>
          </mxGeometry>
        </mxCell>
        <mxCell id="5BGThOlsVbfI0CAh1rRV-56" value="" style="curved=1;startArrow=none;endArrow=block;exitX=0.82;exitY=1;entryX=0.5;entryY=0.01;rounded=0;" edge="1" parent="1" source="5BGThOlsVbfI0CAh1rRV-27" target="5BGThOlsVbfI0CAh1rRV-29">
          <mxGeometry relative="1" as="geometry">
            <Array as="points">
              <mxPoint x="1254" y="1773" />
            </Array>
          </mxGeometry>
        </mxCell>
        <mxCell id="5BGThOlsVbfI0CAh1rRV-57" value="5分钟滑动窗口" style="curved=1;dashed=1;dashPattern=2 3;startArrow=none;endArrow=block;exitX=0.56;exitY=0.99;entryX=1;entryY=0.29;rounded=0;" edge="1" parent="1" source="5BGThOlsVbfI0CAh1rRV-13" target="5BGThOlsVbfI0CAh1rRV-14">
          <mxGeometry relative="1" as="geometry">
            <Array as="points">
              <mxPoint x="988" y="464" />
            </Array>
          </mxGeometry>
        </mxCell>
        <mxCell id="5BGThOlsVbfI0CAh1rRV-58" value="映射14种战术193种技术" style="curved=1;startArrow=none;endArrow=block;exitX=0.99;exitY=0.7;entryX=0.6;entryY=0;rounded=0;" edge="1" parent="1" source="5BGThOlsVbfI0CAh1rRV-18" target="5BGThOlsVbfI0CAh1rRV-19">
          <mxGeometry relative="1" as="geometry">
            <Array as="points">
              <mxPoint x="1018" y="975" />
            </Array>
          </mxGeometry>
        </mxCell>
        <mxCell id="5BGThOlsVbfI0CAh1rRV-59" value="Hyperledger Fabric存证" style="curved=1;startArrow=none;endArrow=block;exitX=0.2;exitY=0.99;entryX=0.74;entryY=0;rounded=0;" edge="1" parent="1" source="5BGThOlsVbfI0CAh1rRV-25" target="5BGThOlsVbfI0CAh1rRV-26">
          <mxGeometry relative="1" as="geometry">
            <Array as="points">
              <mxPoint x="906" y="1573" />
              <mxPoint x="906" y="1645" />
            </Array>
          </mxGeometry>
        </mxCell>
      </root>
    </mxGraphModel>
  </diagram>
</mxfile>
